<mxfile host="app.diagrams.net" modified="2023-09-13T06:48:06.242Z" agent="Mozilla/5.0 (Macintosh; Intel Mac OS X 10_15_7) AppleWebKit/537.36 (KHTML, like Gecko) Chrome/116.0.0.0 Safari/537.36" etag="PRqhH8kivpBLH14jEUym" version="21.7.4" type="github">
  <diagram name="第 1 页" id="AwiXl6ef-VI3q09GI0J6">
    <mxGraphModel dx="1590" dy="857" grid="1" gridSize="10" guides="1" tooltips="1" connect="1" arrows="1" fold="1" page="0" pageScale="1" pageWidth="850" pageHeight="1100" math="0" shadow="0">
      <root>
        <mxCell id="0" />
        <mxCell id="1" parent="0" />
      </root>
    </mxGraphModel>
  </diagram>
</mxfile>
